Coordinates
version=1
nRows=27
nColumns=38
inDegrees=no

Units are S.I. units (second, meters, Newtons, ...)
If the header above contains a line with 'inDegrees', this indicates whether rotational values are in degrees (yes) or radians (no).

endheader
time	pelvis_tilt	pelvis_list	pelvis_rotation	pelvis_tx	pelvis_ty	pelvis_tz	hip_flexion_r	hip_adduction_r	hip_rotation_r	knee_angle_r	ankle_angle_r	subtalar_angle_r	mtp_angle_r	hip_flexion_l	hip_adduction_l	hip_rotation_l	knee_angle_l	ankle_angle_l	subtalar_angle_l	mtp_angle_l	lumbar_extension	lumbar_bending	lumbar_rotation	arm_flex_r	arm_add_r	arm_rot_r	elbow_flex_r	pro_sup_r	wrist_flex_r	wrist_dev_r	arm_flex_l	arm_add_l	arm_rot_l	elbow_flex_l	pro_sup_l	wrist_flex_l	wrist_dev_l
15	-3.00222	1.54685	-1.64925	0.67522	-0.106101	0.938294	-0.153783	-0.125037	-0.198611	0	-0.0312341	0	0	-0.162566	-0.0910417	-0.352193	0	-0.0229906	0	0	-0.116398	-0.0196464	0.0728221	0.0987119	-0.230613	0.802648	0.384784	1.04338	0	0	0.0679908	-0.245071	0.565466	0.640666	1.11755	0	0
15.01	-3.01083	1.54571	-1.64112	0.675417	-0.106467	0.938416	-0.153884	-0.124744	-0.198476	0	-0.0307242	0	0	-0.162773	-0.0913601	-0.352067	0	-0.0222633	0	0	-0.119909	-0.0197187	0.0726625	0.0997286	-0.230434	0.801354	0.383844	1.04299	0	0	0.0685571	-0.24531	0.563251	0.639872	1.1177	0	0
15.02	-3.01663	1.54457	-1.63601	0.675603	-0.10687	0.938556	-0.153934	-0.124538	-0.198171	0	-0.0305474	0	0	-0.163017	-0.0916093	-0.352311	0	-0.0214583	0	0	-0.12361	-0.0198763	0.0728234	0.100531	-0.230545	0.799297	0.383855	1.04217	0	0	0.0691936	-0.245417	0.560941	0.63883	1.11786	0	0
15.03	-3.00466	1.54362	-1.64846	0.675647	-0.107352	0.938722	-0.153653	-0.125063	-0.1983	0	-0.0301388	0	0	-0.162818	-0.0912745	-0.352793	0	-0.0204207	0	0	-0.127375	-0.0202641	0.0729867	0.101215	-0.230928	0.79682	0.383927	1.04134	0	0	0.0698949	-0.245501	0.558539	0.637336	1.11782	0	0
15.04	-3.00144	1.54216	-1.65205	0.675693	-0.107739	0.938902	-0.153915	-0.12538	-0.19821	0	-0.0294703	0	0	-0.163123	-0.0911869	-0.353088	0	-0.0193029	0	0	-0.131771	-0.0205505	0.072997	0.101968	-0.230375	0.789927	0.382357	1.05246	0	0	0.0709581	-0.246581	0.560208	0.637647	1.11164	0	0
15.05	-3.00293	1.54009	-1.65125	0.675824	-0.108066	0.939112	-0.154742	-0.125487	-0.197501	0	-0.028658	0	0	-0.164175	-0.0912405	-0.353305	0	-0.0179801	0	0	-0.136912	-0.0208558	0.072952	0.103361	-0.230387	0.788706	0.381803	1.04914	0	0	0.0715679	-0.246578	0.556536	0.637518	1.11183	0	0
15.06	-3.00711	1.53804	-1.64818	0.676048	-0.108463	0.939343	-0.155402	-0.125471	-0.196751	0	-0.0280692	0	0	-0.165352	-0.0914165	-0.353496	0	-0.0167021	0	0	-0.142149	-0.0212033	0.0732725	0.104959	-0.230195	0.787573	0.380777	1.04612	0	0	0.0722838	-0.24652	0.552813	0.637145	1.11141	0	0
15.07	-3.01011	1.53539	-1.64452	0.675884	-0.108251	0.939553	-0.158435	-0.125335	-0.197987	0	-0.0277503	0	0	-0.167437	-0.0916628	-0.354712	0	-0.0149941	0	0	-0.144975	-0.0213773	0.0726637	0.105089	-0.229761	0.787349	0.378665	1.03626	0	0	0.0715452	-0.245421	0.54528	0.634192	1.11309	0	0
15.08	-3.01656	1.53546	-1.63973	0.676297	-0.109479	0.939705	-0.154709	-0.125221	-0.196756	0	-0.0263382	0	0	-0.163128	-0.0927036	-0.356324	0.00387387	-0.0116975	0	0	-0.151978	-0.0213904	0.0723823	0.1095	-0.229324	0.785392	0.376942	1.03491	0	0	0.0744611	-0.245489	0.542581	0.632581	1.11153	0	0
15.09	-3.01429	1.53367	-1.64198	0.676436	-0.110203	0.939981	-0.154748	-0.125297	-0.197022	0	-0.0255271	0	0	-0.157145	-0.0952272	-0.361066	0.0173372	-0.0066189	0	0	-0.15797	-0.0219451	0.0719068	0.112027	-0.228617	0.783158	0.374596	1.03358	0	0	0.0762412	-0.245773	0.5397	0.631696	1.1101	0	0
15.1	-3.01686	1.53189	-1.63939	0.676546	-0.110855	0.940232	-0.154677	-0.125155	-0.19738	0	-0.0247974	0	0	-0.151327	-0.0979148	-0.365741	0.0305246	-0.00167579	0	0	-0.163954	-0.0222543	0.0713998	0.114688	-0.227719	0.780772	0.371634	1.03185	0	0	0.0779853	-0.246052	0.536783	0.630967	1.10885	0	0
15.11	-3.02636	1.53136	-1.63082	0.676568	-0.111166	0.940385	-0.161619	-0.126313	-0.20441	0	-0.0215552	0	0	-0.14541	-0.101418	-0.371654	0.0430953	0.00411658	0	0	-0.16813	-0.0220241	0.0713925	0.117373	-0.226914	0.778177	0.368339	1.02991	0	0	0.0789916	-0.246163	0.533947	0.629907	1.10752	0	0
15.12	-3.04058	1.52871	-1.61611	0.676576	-0.112025	0.9407	-0.158174	-0.126717	-0.205617	0	-0.0189648	0	0	-0.140957	-0.104411	-0.37421	0.0550717	0.00816485	0	0	-0.175731	-0.0216619	0.0701267	0.120751	-0.226583	0.776271	0.366012	1.02836	0	0	0.0814055	-0.246532	0.531892	0.62933	1.10643	0	0
15.13	-3.05749	1.52541	-1.59889	0.67662	-0.112997	0.94105	-0.154674	-0.127054	-0.206916	0.00246236	-0.0161176	0	0	-0.137718	-0.107327	-0.375463	0.0657388	0.0111417	0	0	-0.184559	-0.0211909	0.0691966	0.124559	-0.226887	0.775567	0.364807	1.02695	0	0	0.0845461	-0.246983	0.530384	0.629633	1.10583	0	0
15.14	-3.07352	1.5226	-1.58342	0.676829	-0.114131	0.941348	-0.147949	-0.127787	-0.210626	0.0176438	-0.0111352	0	0	-0.132913	-0.110855	-0.379576	0.0786359	0.0156095	0	0	-0.193502	-0.0209339	0.0693909	0.128755	-0.226823	0.773211	0.363112	1.02524	0	0	0.0884327	-0.247392	0.528545	0.629568	1.10474	0	0
15.15	-3.08623	1.52032	-1.57144	0.677033	-0.115227	0.941549	-0.139052	-0.129099	-0.216091	0.0359137	-0.00378296	0	0	-0.127601	-0.114288	-0.383966	0.0915588	0.0201816	0	0	-0.201788	-0.0207869	0.0696428	0.132988	-0.226419	0.770641	0.360636	1.0238	0	0	0.0920534	-0.248021	0.527059	0.629432	1.10341	0	0
15.16	-3.09348	1.51818	-1.56456	0.677161	-0.116335	0.941681	-0.129239	-0.13102	-0.222302	0.0557987	0.00471568	0	0	-0.122054	-0.117441	-0.387499	0.104449	0.0247991	0	0	-0.210011	-0.0208555	0.0694128	0.137465	-0.225928	0.768569	0.357812	1.02284	0	0	0.0955802	-0.248873	0.525408	0.629668	1.10201	0	0
15.17	-3.09707	1.51595	-1.56119	0.67726	-0.117492	0.941752	-0.119038	-0.133394	-0.228305	0.0767311	0.0130747	0	0	-0.116686	-0.120314	-0.390143	0.117026	0.0293129	0	0	-0.218657	-0.0211353	0.0688893	0.142203	-0.225681	0.766822	0.355567	1.02202	0	0	0.0993688	-0.249671	0.523186	0.63084	1.10065	0	0
15.18	-3.09203	1.51397	-1.56643	0.677295	-0.118706	0.941743	-0.107906	-0.136686	-0.234206	0.098945	0.021924	0	0	-0.110974	-0.122612	-0.39238	0.129649	0.0339674	0	0	-0.227335	-0.0217887	0.0682158	0.147095	-0.225707	0.764336	0.353933	1.02059	0	0	0.103439	-0.250259	0.520839	0.631606	1.09931	0	0
15.19	-3.07959	1.51247	-1.57906	0.677307	-0.119974	0.941638	-0.0954155	-0.140832	-0.239667	0.122748	0.0312406	0	0	-0.104448	-0.124469	-0.394327	0.142718	0.0386814	0	0	-0.235697	-0.0228643	0.0672422	0.152335	-0.225606	0.761277	0.352255	1.01829	0	0	0.10772	-0.251025	0.518851	0.630908	1.09827	0	0
15.2	-3.06368	1.51124	-1.59541	0.677332	-0.12128	0.941438	-0.0820745	-0.145459	-0.243993	0.147378	0.0407228	0	0	-0.0974455	-0.12616	-0.396335	0.156152	0.0435068	0	0	-0.243996	-0.0242678	0.0664937	0.157643	-0.225644	0.758795	0.350715	1.01618	0	0	0.112094	-0.252045	0.517007	0.631132	1.09784	0	0
15.21	-3.04213	1.51027	-1.61758	0.677402	-0.122632	0.941135	-0.068134	-0.150476	-0.24681	0.172296	0.0499162	0	0	-0.0897261	-0.127601	-0.398275	0.170272	0.0484579	0	0	-0.252254	-0.0262495	0.0659462	0.162931	-0.225831	0.757365	0.349623	1.01476	0	0	0.116648	-0.253246	0.515366	0.633041	1.09736	0	0
15.22	-3.02077	1.5097	-1.63949	0.677487	-0.124019	0.940733	-0.0538511	-0.155375	-0.248538	0.196834	0.0586508	0	0	-0.0811506	-0.129204	-0.399841	0.185015	0.0536574	0	0	-0.26026	-0.0281952	0.0653999	0.168242	-0.226282	0.757126	0.348822	1.0141	0	0	0.121219	-0.254568	0.512972	0.634089	1.09673	0	0
15.23	-3.0002	1.50947	-1.66054	0.677572	-0.125459	0.940229	-0.0392873	-0.160223	-0.249651	0.221026	0.0671898	0	0	-0.0716869	-0.131049	-0.400945	0.200506	0.0590178	0	0	-0.268197	-0.0300593	0.0645054	0.173968	-0.226635	0.757415	0.347648	1.01382	0	0	0.126052	-0.255666	0.509797	0.634816	1.09577	0	0
15.24	-2.97862	1.50988	-1.6827	0.67768	-0.126984	0.939586	-0.0237322	-0.165115	-0.249912	0.245486	0.0756277	0	0	-0.0608445	-0.133127	-0.401302	0.217144	0.0646869	0	0	-0.275802	-0.0319355	0.0635084	0.18023	-0.226633	0.757147	0.345763	1.01289	0	0	0.131093	-0.256966	0.507075	0.63612	1.09478	0	0
15.25	-2.95505	1.51077	-1.70717	0.677856	-0.128595	0.938821	-0.00712737	-0.170008	-0.248836	0.270429	0.0839384	0	0	-0.0486581	-0.135547	-0.401559	0.235326	0.0708546	0	0	-0.28322	-0.0340286	0.0627583	0.186888	-0.226497	0.755162	0.344052	1.01003	0	0	0.136361	-0.258616	0.50508	0.637753	1.09381	0	0
15.26	-2.93005	1.51204	-1.73305	0.678051	-0.130307	0.937911	0.0106058	-0.174887	-0.246568	0.296307	0.0926065	0	0	-0.0351605	-0.138301	-0.401126	0.254929	0.0774101	0	0	-0.29054	-0.0361654	0.0620862	0.193645	-0.226482	0.753809	0.34268	1.00741	0	0	0.141989	-0.260372	0.503001	0.639573	1.09248	0	0
